<svg xmlns="http://www.w3.org/2000/svg" xml:space="preserve" width="2000" height="133" data-id="lg_DgWrWagUTdWF5h6Fc2" data-version="1" viewBox="0 0 2000 133"><g data-padding="20"><g transform="translate(10 2.358)scale(.96454)"><rect width="201.727" height="201.727" x="845.995" y="-606.167" fill="#af47e8" rx="13" ry="13" transform="matrix(.66 0 0 .66 186.14 400)"/><rect width="407.426" height="74.58" x="421.214" y="-370.79" fill="none" rx="0" ry="0" transform="translate(476.79 377.36)"/><path fill="#76309b" d="M921.587 64.1q-1.98 0-2.83-1.98l-19.47-44.88q-.86-2.05-.17-3.37t2.61-1.32q2.04 0 2.84 1.92l17.42 41.77h-.99l17.62-41.77q.46-1.06 1.12-1.49t1.79-.43q1.78 0 2.47 1.32t-.03 2.91l-19.6 45.34q-.47.99-1.16 1.48-.69.5-1.62.5m64.03 0h-30.29q-1.32 0-2.21-.89t-.89-2.21V15.65q0-1.38.89-2.24t2.21-.86h30.29q1.32 0 2.18.83.86.82.86 2.14 0 1.19-.86 2.02-.86.82-2.18.82h-27.19v16.9h19.6q1.39 0 2.21.82.83.83.83 2.08t-.83 2.08q-.82.82-2.21.82h-19.6v17.23h27.19q1.32 0 2.18.83.86.82.86 2.01 0 1.32-.86 2.14-.86.83-2.18.83m28.77.65q-4.22 0-7.95-1.29t-6.5-3.6q-2.78-2.31-4.1-5.41-.66-1.25-.03-2.31.63-1.05 2.08-1.38 1.12-.27 2.18.29 1.05.56 1.58 1.69.86 1.78 2.71 3.2t4.45 2.27q2.61.86 5.58.86 3.3 0 5.97-1.05 2.68-1.06 4.29-3.07 1.62-2.02 1.62-4.92 0-3.7-2.84-6.53-2.84-2.84-9.11-3.57-7.98-.86-12.54-4.82-4.55-3.96-4.55-9.76 0-4.23 2.31-7.23t6.34-4.59q4.02-1.58 9.1-1.58 3.83 0 6.83 1.12 3.01 1.12 5.22 3.07t3.79 4.45q.8 1.32.63 2.48-.16 1.15-1.22 1.81-1.19.66-2.48.27-1.28-.4-1.94-1.52-.99-1.78-2.51-3.1t-3.6-2.11q-2.08-.8-4.91-.8-5.02-.06-8.25 1.95-3.24 2.01-3.24 6.04 0 2.11 1.09 3.93 1.09 1.81 3.83 3.17 2.74 1.35 7.69 1.94 7.98.93 12.21 4.85 4.22 3.93 4.22 10.33 0 3.7-1.42 6.47t-3.92 4.65q-2.51 1.88-5.78 2.84t-6.83.96m43.69-.65q-1.25 0-2.18-.89-.92-.89-.92-2.21V12.55h6.2V61q0 1.32-.85 2.21-.86.89-2.25.89m17.89-45.87h-35.77q-1.26 0-2.05-.79-.79-.8-.79-2.05t.79-2.05q.79-.79 2.05-.79h35.77q1.32 0 2.11.79.79.8.79 2.05t-.79 2.05q-.79.79-2.11.79m13.6 45.87q-1.32 0-2.21-.89t-.89-2.21V15.65q0-1.38.89-2.24t2.21-.86q1.39 0 2.25.86t.86 2.24V61q0 1.32-.86 2.21t-2.25.89m19.33 0q-1.32 0-2.18-.89-.85-.89-.85-2.21V15.65q0-1.38.85-2.24.86-.86 2.18-.86 1.45 0 2.44 1.12l29.84 39.54V15.65q0-1.38.89-2.24t2.21-.86 2.18.86q.85.86.85 2.24V61q0 1.32-.85 2.21-.86.89-2.18.89-.66 0-1.32-.27-.66-.26-1.06-.79l-29.9-39.53V61q0 1.32-.85 2.21-.86.89-2.25.89m75.44.66q-5.81 0-10.63-1.95-4.81-1.95-8.28-5.51-3.46-3.56-5.41-8.38t-1.95-10.63q0-5.74 1.95-10.56t5.41-8.38q3.47-3.56 8.28-5.51 4.82-1.95 10.63-1.95 5.74 0 10.56 1.95t8.32 5.51q3.49 3.56 5.44 8.38t1.95 10.56q0 5.81-1.95 10.63t-5.44 8.38q-3.5 3.56-8.32 5.51t-10.56 1.95m0-5.68q4.42 0 8.12-1.58 3.69-1.59 6.43-4.39 2.74-2.81 4.23-6.6 1.48-3.8 1.48-8.22t-1.48-8.18q-1.49-3.76-4.23-6.6t-6.43-4.39q-3.7-1.55-8.12-1.55t-8.12 1.55q-3.69 1.55-6.4 4.39t-4.22 6.6q-1.52 3.76-1.52 8.18t1.52 8.22q1.51 3.79 4.22 6.6 2.71 2.8 6.4 4.39 3.7 1.58 8.12 1.58m54.46 5.02q-1.98 0-2.84-1.98l-19.47-44.88q-.86-2.05-.16-3.37.69-1.32 2.6-1.32 2.05 0 2.84 1.92l17.43 41.77h-.99l17.62-41.77q.46-1.06 1.12-1.49t1.78-.43q1.78 0 2.48 1.32.69 1.32-.04 2.91l-19.6 45.34q-.46.99-1.15 1.48-.7.5-1.62.5m28.24 0q-1.72 0-2.58-1.45-.85-1.46-.13-3.04l18.88-44.95q.86-2.11 2.9-2.11 2.18 0 2.97 2.11l18.94 45.08q.66 1.59-.23 2.97-.89 1.39-2.6 1.39-.86 0-1.65-.5-.8-.49-1.19-1.42l-17.1-41.97h1.92l-17.23 41.97q-.39.99-1.19 1.46-.79.46-1.71.46m34.85-11.68h-31.02l2.44-5.22h26.2Z"/><rect width="253.572" height="33.9" x="498.141" y="-350.45" fill="none" rx="0" ry="0" transform="translate(399.86 434.59)"/><path fill="#76309b" d="M905.507 110.01q-.42 0-.73-.27-.32-.27-.44-.69l-6.15-20.79q-.21-.72.08-1.2.28-.48.91-.48.36 0 .68.2.31.19.46.7l5.55 19.32h-.69l5.25-18.81q.09-.33.41-.54.31-.21.7-.21.36 0 .69.2.33.19.42.58l5.28 18.78h-.69l5.58-19.44q.21-.78 1.14-.78.63 0 .87.5.24.49.06 1.18l-6.12 20.76q-.15.48-.46.74-.32.25-.74.25t-.73-.27q-.32-.27-.44-.69L911.177 90h.72l-5.19 19.02q-.15.45-.46.72-.32.27-.74.27m30.27.15q-2.43 0-4.3-1.06-1.88-1.07-2.94-2.96-1.07-1.89-1.07-4.32 0-2.46 1.01-4.33 1-1.88 2.77-2.96t4.08-1.08q2.28 0 3.98 1.04 1.69 1.03 2.62 2.86t.93 4.17q0 .48-.3.77-.3.28-.78.28h-12.75v-1.92h12.99l-1.29.93q.03-1.74-.63-3.12t-1.87-2.16q-1.22-.78-2.9-.78-1.71 0-3 .81t-1.99 2.24q-.71 1.42-.71 3.25t.8 3.24q.79 1.41 2.17 2.22t3.18.81q1.08 0 2.18-.37 1.09-.38 1.75-.95.33-.27.75-.28.42-.02.72.22.39.36.41.78.01.42-.35.72-.99.84-2.52 1.4-1.53.55-2.94.55m18.21 0q-2.31 0-4.14-1.09-1.83-1.1-2.89-2.99-1.07-1.89-1.07-4.26 0-2.4 1.1-4.29 1.09-1.89 2.98-2.98 1.89-1.1 4.26-1.1t4.25 1.1q1.87 1.09 2.97 2.98 1.09 1.89 1.12 4.29l-.93.72q0 2.16-1 3.89-1.01 1.72-2.73 2.73-1.73 1-3.92 1m.24-2.1q1.74 0 3.11-.81 1.36-.81 2.16-2.23.79-1.43.79-3.2 0-1.8-.79-3.21-.8-1.41-2.16-2.23-1.37-.83-3.11-.83-1.71 0-3.09.83-1.38.82-2.19 2.23t-.81 3.21q0 1.77.81 3.2.81 1.42 2.19 2.23t3.09.81m7.17 1.95q-.51 0-.84-.31-.33-.32-.33-.83v-5.13l.57-2.37 1.77.45v7.05q0 .51-.33.83-.33.31-.84.31m7.95-10.11h-1.32q.09-1.86.98-3.33.88-1.47 2.31-2.31 1.42-.84 3.16-.84 1.38 0 2.13.39t.57 1.14q-.12.45-.4.6-.29.15-.69.12-.41-.03-.92-.06-1.68-.15-2.98.35-1.31.49-2.07 1.51-.77 1.02-.77 2.43m-1.14 10.11q-.54 0-.84-.3t-.3-.84V94.74q0-.54.3-.84t.84-.3.84.3.3.84v14.13q0 .54-.3.84t-.84.3m28.41.01q-.48 0-.82-.34-.35-.35-.35-.83v-7.5l-8.16-12.93q-.3-.45-.22-.87.07-.42.37-.69t.75-.27q.36 0 .59.15.22.15.4.42l8.1 13.05h-1.26l8.07-12.99q.21-.33.47-.48.25-.15.61-.15.42 0 .71.29.28.28.33.7.04.42-.23.84l-8.19 12.93v7.5q0 .48-.34.83-.35.34-.83.34m19.89.14q-2.4 0-4.29-1.08t-2.97-2.97-1.08-4.29q0-2.43 1.08-4.32t2.97-2.97 4.29-1.08 4.28 1.08q1.87 1.08 2.95 2.97t1.11 4.32q0 2.4-1.09 4.29-1.1 1.89-2.97 2.97-1.88 1.08-4.28 1.08m0-2.1q1.74 0 3.12-.81t2.16-2.22.78-3.21-.78-3.22q-.78-1.43-2.16-2.24t-3.12-.81-3.12.81-2.17 2.24q-.8 1.42-.8 3.22t.8 3.21q.79 1.41 2.17 2.22t3.12.81m19.98 2.14q-2.13 0-3.81-.88-1.68-.89-2.65-2.6-.98-1.71-.98-4.17v-7.8q0-.48.33-.81t.81-.33q.51 0 .84.33t.33.81v7.8q0 1.86.71 3.06.7 1.2 1.92 1.8 1.21.6 2.74.6 1.47 0 2.66-.57 1.18-.57 1.87-1.56t.69-2.25h1.65q-.09 1.89-1.03 3.38-.95 1.48-2.54 2.34-1.59.85-3.54.85m6.6-.18q-.51 0-.82-.31-.32-.32-.32-.86v-14.1q0-.51.32-.82.31-.32.82-.32t.84.32q.33.31.33.82v14.1q0 .54-.33.86-.33.31-.84.31m8.85-10.12h-1.32q.09-1.86.98-3.33.88-1.47 2.31-2.31 1.42-.84 3.16-.84 1.38 0 2.13.39t.57 1.14q-.12.45-.4.6-.29.15-.69.12-.41-.03-.92-.06-1.68-.15-2.98.35-1.31.49-2.07 1.51-.77 1.02-.77 2.43m-1.14 10.11q-.54 0-.84-.3t-.3-.84V94.74q0-.54.3-.84t.84-.3.84.3.3.84v14.13q0 .54-.3.84t-.84.3m28.89.31q-1.92 0-3.55-.55-1.64-.56-2.84-1.58t-1.83-2.37q-.24-.48-.01-.88.22-.41.76-.56.42-.12.83.09.4.21.61.63.45.87 1.32 1.56t2.07 1.07q1.2.37 2.64.37 1.59 0 2.82-.52 1.23-.53 1.94-1.53.7-1.01.7-2.45 0-1.83-1.35-3.15t-4.23-1.68q-3.51-.42-5.49-2.17-1.98-1.76-1.98-4.31 0-1.83.98-3.18.97-1.35 2.68-2.08 1.71-.74 3.93-.74 1.65 0 3 .53 1.35.52 2.36 1.38 1 .85 1.63 1.87.3.48.2.93-.11.45-.53.69-.45.21-.91.06-.47-.15-.71-.57-.45-.69-1.12-1.3-.68-.62-1.64-.98t-2.31-.39q-2.37 0-3.81 1.01-1.44 1-1.44 2.92 0 1.02.54 1.88.54.85 1.79 1.47 1.24.61 3.34.91 3.75.54 5.57 2.3 1.81 1.75 1.81 4.57 0 1.62-.58 2.88-.59 1.26-1.65 2.12-1.07.85-2.49 1.3-1.43.45-3.05.45m19.41-.3h-.63q-1.59 0-2.83-.75-1.25-.75-1.97-2.05-.72-1.31-.72-2.99V89.56q0-.51.32-.84.31-.33.82-.33t.84.33.33.84v14.67q0 1.53.9 2.51.9.97 2.31.97h.81q.48 0 .78.33t.3.84-.36.83q-.36.31-.9.31m-.45-13.8h-7.65q-.45 0-.75-.28-.3-.29-.3-.71 0-.45.3-.73.3-.29.75-.29h7.65q.45 0 .75.29.3.28.3.73 0 .42-.3.71-.3.28-.75.28m12.93 13.94q-2.4 0-4.29-1.08t-2.97-2.97-1.08-4.29q0-2.43 1.08-4.32t2.97-2.97 4.29-1.08 4.28 1.08q1.87 1.08 2.95 2.97t1.11 4.32q0 2.4-1.09 4.29-1.1 1.89-2.97 2.97-1.88 1.08-4.28 1.08m0-2.1q1.74 0 3.12-.81t2.16-2.22.78-3.21-.78-3.22q-.78-1.43-2.16-2.24t-3.12-.81-3.12.81-2.17 2.24q-.8 1.42-.8 3.22t.8 3.21q.79 1.41 2.17 2.22t3.12.81m15.12-8.16h-1.32q.09-1.86.98-3.33.88-1.47 2.31-2.31 1.42-.84 3.16-.84 1.38 0 2.13.39t.57 1.14q-.12.45-.4.6-.29.15-.69.12-.41-.03-.92-.06-1.68-.15-2.98.35-1.31.49-2.07 1.51-.77 1.02-.77 2.43m-1.14 10.11q-.54 0-.84-.3t-.3-.84V94.74q0-.54.3-.84t.84-.3.84.3.3.84v14.13q0 .54-.3.84t-.84.3m15.42 7.14q-.24 0-.54-.12-1.02-.45-.57-1.44l9.69-21.36q.45-.96 1.44-.54 1.02.42.57 1.41l-9.72 21.36q-.3.69-.87.69m3.33-7.65q-.45.21-.84.08-.39-.14-.63-.59l-6.69-13.86q-.21-.45-.06-.84t.6-.6.84-.07q.39.13.6.58l6.57 13.86q.24.45.15.84t-.54.6"/><rect width="51.535" height="79.1" x="651.942" y="166.52" fill="none" rx="0" ry="0" transform="rotate(-45 583.213 -19.284)"/><path fill="#76309b" d="M824.217 88.788q-1.484 1.485-3.613.643l-48.26-19.056q-2.178-.89-2.652-2.397-.466-1.514.97-2.95 1.534-1.534 3.563-.692l44.4 18.264-.743.743-18.116-44.548q-.446-1.138-.27-1.95.17-.82 1.012-1.663 1.337-1.337 2.843-.863 1.513.467 2.156 2.2l19.304 48.705q.396 1.09.248 1.987-.15.884-.842 1.577"/><rect width="51.535" height="79.1" x="651.942" y="166.52" fill="none" rx="0" ry="0" transform="rotate(-45 583.627 -24.126)"/><path fill="#fff" d="M827.01 86.01q-1.484 1.485-3.612.643l-48.26-19.056q-2.178-.89-2.652-2.398-.467-1.513.969-2.948 1.534-1.535 3.563-.693l44.4 18.264-.743.743-18.116-44.548q-.445-1.138-.276-1.959.177-.813 1.019-1.654 1.336-1.337 2.842-.863 1.513.467 2.157 2.2l19.304 48.705q.396 1.09.24 1.98-.141.89-.834 1.584"/></g><path fill="transparent" stroke="transparent" d="M718 0h564v133H718z"/></g></svg>